<?xml version="1.0" encoding="UTF-8"?>
<svg width="25px" height="24px" viewBox="0 0 25 24" version="1.1" xmlns="http://www.w3.org/2000/svg" xmlns:xlink="http://www.w3.org/1999/xlink">
    <!-- Generator: Sketch 63.1 (92452) - https://sketch.com -->
    <title>Icons/Content/Forms</title>
    <desc>Created with Sketch.</desc>
    <defs>
        <path d="M2.57142857,4.375 L21.4285714,4.375 L21.4285714,2.625 L2.57142857,2.625 L2.57142857,4.375 Z M22.7635819,17 C23.4460847,17 24,17.587125 24,18.3125 L24,18.3125 L24,22.6875 C24,23.412875 23.4460847,24 22.7635819,24 L22.7635819,24 L14.2364181,24 C13.5539153,24 13,23.412875 13,22.6875 L13,22.6875 L13,18.3125 C13,17.587125 13.5539153,17 14.2364181,17 L14.2364181,17 Z M22.7142857,0 C23.424,0 24,0.587125 24,1.3125 L24,1.3125 L24,5.6875 C24,6.412 23.424,7 22.7142857,7 L22.7142857,7 L1.28571429,7 C0.576,7 0,6.412 0,5.6875 L0,5.6875 L0,1.3125 C0,0.587125 0.576,0 1.28571429,0 L1.28571429,0 Z M2.47283627,21.375 L8.52716373,21.375 L8.52716373,19.625 L2.47283627,19.625 L2.47283627,21.375 Z M1.23641813,24 L9.76358187,24 C10.4460847,24 11,23.412 11,22.6875 L11,18.3125 C11,17.587125 10.4460847,17 9.76358187,17 L1.23641813,17 C0.553915324,17 0,17.587125 0,18.3125 L0,22.6875 C0,23.412 0.553915324,24 1.23641813,24 L1.23641813,24 Z M2.57142857,13.375 L21.4285714,13.375 L21.4285714,11.625 L2.57142857,11.625 L2.57142857,13.375 Z M1.28571429,16 L22.7142857,16 C23.424,16 24,15.412 24,14.6875 L24,10.3125 C24,9.587125 23.424,9 22.7142857,9 L1.28571429,9 C0.576,9 0,9.587125 0,10.3125 L0,14.6875 C0,15.412 0.576,16 1.28571429,16 L1.28571429,16 Z" id="path-1"></path>
    </defs>
    <g id="----Icons" stroke="none" stroke-width="1" fill="none" fill-rule="evenodd">
        <g id="Icons" transform="translate(-878.000000, -2215.000000)">
            <g id="Icons/_Stickersheet" transform="translate(412.500000, 384.000000)">
                <g id="Icons/HubSpotobjects/Forms" transform="translate(466.000000, 1831.000000)">
                    <mask id="mask-2" fill="white">
                        <use xlink:href="#path-1"></use>
                    </mask>
                    <use id="Icons/Content/Forms" fill="#7C98B6" fill-rule="evenodd" xlink:href="#path-1"></use>
                </g>
            </g>
        </g>
    </g>
</svg>