<?xml version="1.0" encoding="UTF-8"?>
<svg width="11px" height="13px" viewBox="0 0 11 13" version="1.1" xmlns="http://www.w3.org/2000/svg" xmlns:xlink="http://www.w3.org/1999/xlink">
    <!-- Generator: Sketch 63.1 (92452) - https://sketch.com -->
    <title>Icons/View-Switchers/Small/Generate Chart</title>
    <desc>Created with Sketch.</desc>
    <g id="Icons/View-Switchers/Small/Generate-Chart" stroke="none" stroke-width="1" fill="none" fill-rule="evenodd">
        <path d="M10,3 C9.447,3 9,3.448 9,4 L9,11 L8,11 L8,1 C8,0.448 7.553,0 7,0 C6.447,0 6,0.448 6,1 L6,11 L5,11 L5,4 C5,3.448 4.553,3 4,3 C3.447,3 3,3.448 3,4 L3,11 L2,11 L2,7 C2,6.448 1.553,6 1,6 C0.447,6 0,6.448 0,7 L0,12 C0,12.552 0.447,13 1,13 L4,13 L7,13 L10,13 C10.553,13 11,12.552 11,12 L11,4 C11,3.448 10.553,3 10,3" id="Icon/View-Switchers/Small/Generate-Chart" fill="#3F5D75"></path>
    </g>
</svg>