<?xml version="1.0" encoding="UTF-8"?>
<svg width="14px" height="13px" viewBox="0 0 14 13" version="1.1" xmlns="http://www.w3.org/2000/svg" xmlns:xlink="http://www.w3.org/1999/xlink">
    <!-- Generator: Sketch 63.1 (92452) - https://sketch.com -->
    <title>Icons/View-Switchers/Small/Grid View</title>
    <desc>Created with Sketch.</desc>
    <g id="Icons/View-Switchers/Small/Grid-View" stroke="none" stroke-width="1" fill="none" fill-rule="evenodd">
        <g id="Icon/View-Switchers/Small/Grid-View" fill="#3F5D75">
            <path d="M2.0868,0 L1.0868,0 C0.5348,0 0.0868,0.448 0.0868,1 L0.0868,2 C0.0868,2.552 0.5348,3 1.0868,3 L2.0868,3 C2.6388,3 3.0868,2.552 3.0868,2 L3.0868,1 C3.0868,0.448 2.6388,0 2.0868,0" id="Fill-56"></path>
            <path d="M2.0868,5 L1.0868,5 C0.5348,5 0.0868,5.448 0.0868,6 L0.0868,7 C0.0868,7.552 0.5348,8 1.0868,8 L2.0868,8 C2.6388,8 3.0868,7.552 3.0868,7 L3.0868,6 C3.0868,5.448 2.6388,5 2.0868,5" id="Fill-57"></path>
            <path d="M2.0868,10 L1.0868,10 C0.5348,10 0.0868,10.448 0.0868,11 L0.0868,12 C0.0868,12.552 0.5348,13 1.0868,13 L2.0868,13 C2.6388,13 3.0868,12.552 3.0868,12 L3.0868,11 C3.0868,10.448 2.6388,10 2.0868,10" id="Fill-58"></path>
            <path d="M7.0868,0 L6.0868,0 C5.5348,0 5.0868,0.448 5.0868,1 L5.0868,2 C5.0868,2.552 5.5348,3 6.0868,3 L7.0868,3 C7.6388,3 8.0868,2.552 8.0868,2 L8.0868,1 C8.0868,0.448 7.6388,0 7.0868,0" id="Fill-59"></path>
            <path d="M7.0868,5 L6.0868,5 C5.5348,5 5.0868,5.448 5.0868,6 L5.0868,7 C5.0868,7.552 5.5348,8 6.0868,8 L7.0868,8 C7.6388,8 8.0868,7.552 8.0868,7 L8.0868,6 C8.0868,5.448 7.6388,5 7.0868,5" id="Fill-60"></path>
            <path d="M7.0868,10 L6.0868,10 C5.5348,10 5.0868,10.448 5.0868,11 L5.0868,12 C5.0868,12.552 5.5348,13 6.0868,13 L7.0868,13 C7.6388,13 8.0868,12.552 8.0868,12 L8.0868,11 C8.0868,10.448 7.6388,10 7.0868,10" id="Fill-61"></path>
            <path d="M12.0868,0 L11.0868,0 C10.5348,0 10.0868,0.448 10.0868,1 L10.0868,2 C10.0868,2.552 10.5348,3 11.0868,3 L12.0868,3 C12.6388,3 13.0868,2.552 13.0868,2 L13.0868,1 C13.0868,0.448 12.6388,0 12.0868,0" id="Fill-62"></path>
            <path d="M12.0868,5 L11.0868,5 C10.5348,5 10.0868,5.448 10.0868,6 L10.0868,7 C10.0868,7.552 10.5348,8 11.0868,8 L12.0868,8 C12.6388,8 13.0868,7.552 13.0868,7 L13.0868,6 C13.0868,5.448 12.6388,5 12.0868,5" id="Fill-63"></path>
            <path d="M12.0868,10 L11.0868,10 C10.5348,10 10.0868,10.448 10.0868,11 L10.0868,12 C10.0868,12.552 10.5348,13 11.0868,13 L12.0868,13 C12.6388,13 13.0868,12.552 13.0868,12 L13.0868,11 C13.0868,10.448 12.6388,10 12.0868,10" id="Fill-64"></path>
        </g>
    </g>
</svg>