<?xml version="1.0" encoding="UTF-8"?>
<svg width="11px" height="12px" viewBox="0 0 11 12" version="1.1" xmlns="http://www.w3.org/2000/svg" xmlns:xlink="http://www.w3.org/1999/xlink">
    <!-- Generator: Sketch 63.1 (92452) - https://sketch.com -->
    <title>Icons/Editors/Small/Image Alignment Top</title>
    <desc>Created with Sketch.</desc>
    <defs>
        <polygon id="path-1" points="0.0002 0.044 10.9552 0.044 10.9552 6.1088 0.0002 6.1088"></polygon>
    </defs>
    <g id="Icons/Editors/Small/Image-Alignment-Top" stroke="none" stroke-width="1" fill="none" fill-rule="evenodd">
        <g id="Icon/Editors/Small/Image-Alignment-Top">
            <path d="M0.5872,11.9556 L10.3682,11.9556 C10.6932,11.9556 10.9552,11.6926 10.9552,11.3686 C10.9552,11.0446 10.6932,10.7816 10.3682,10.7816 L0.5872,10.7816 C0.2622,10.7816 0.0002,11.0446 0.0002,11.3686 C0.0002,11.6926 0.2622,11.9556 0.5872,11.9556" id="Fill-1" fill="#3F5D75"></path>
            <path d="M0.5872,9.5103 L10.3682,9.5103 C10.6932,9.5103 10.9552,9.2473 10.9552,8.9233 C10.9552,8.5993 10.6932,8.3363 10.3682,8.3363 L0.5872,8.3363 C0.2622,8.3363 0.0002,8.5993 0.0002,8.9233 C0.0002,9.2473 0.2622,9.5103 0.5872,9.5103" id="Fill-3" fill="#3F5D75"></path>
            <g id="Group-7" transform="translate(0.000000, 0.955700)">
                <mask id="mask-2" fill="white">
                    <use xlink:href="#path-1"></use>
                </mask>
                <g id="Clip-6"></g>
                <path d="M10.2982,0.0438 L0.6572,0.0438 C0.2942,0.0438 0.0002,0.3388 0.0002,0.7018 L0.0002,5.4518 C0.0002,5.8148 0.2942,6.1088 0.6572,6.1088 L10.2982,6.1088 C10.6612,6.1088 10.9552,5.8148 10.9552,5.4518 L10.9552,0.7018 C10.9552,0.3388 10.6612,0.0438 10.2982,0.0438" id="Fill-5" fill="#3F5D75" mask="url(#mask-2)"></path>
            </g>
        </g>
    </g>
</svg>