<?xml version="1.0" encoding="UTF-8"?>
<svg width="14px" height="14px" viewBox="0 0 14 14" version="1.1" xmlns="http://www.w3.org/2000/svg" xmlns:xlink="http://www.w3.org/1999/xlink">
    <!-- Generator: Sketch 63.1 (92452) - https://sketch.com -->
    <title>Icons/Utilities/Small/Logo</title>
    <desc>Created with Sketch.</desc>
    <g id="Icons/Utilities/Small/Logo" stroke="none" stroke-width="1" fill="none" fill-rule="evenodd">
        <g id="Icon/Utilities/Small/Logo" fill="#3F5D75">
            <path d="M6.9891,10.7445 C9.0571,10.7445 10.7431,9.1535 10.9331,7.1345 L3.9141,9.2615 C4.6451,10.1585 5.7441,10.7445 6.9891,10.7445" id="Fill-43"></path>
            <path d="M6.9891,2.7802 C4.9211,2.7802 3.2351,4.3712 3.0451,6.3902 L10.0641,4.2632 C9.3331,3.3662 8.2341,2.7802 6.9891,2.7802" id="Fill-45"></path>
            <path d="M6.9891,11.7152 C4.2591,11.7152 2.0371,9.4932 2.0371,6.7622 C2.0371,4.0312 4.2591,1.8092 6.9891,1.8092 C9.7201,1.8092 11.9421,4.0312 11.9421,6.7622 C11.9421,9.4932 9.7201,11.7152 6.9891,11.7152 M13.2231,5.4172 C13.0791,5.2102 12.9411,5.0142 12.8861,4.8462 C12.8281,4.6632 12.8221,4.4152 12.8161,4.1532 C12.8071,3.6992 12.7961,3.1852 12.4901,2.7652 C12.1821,2.3412 11.6941,2.1732 11.2641,2.0232 C11.0181,1.9382 10.7861,1.8572 10.6341,1.7462 C10.4851,1.6382 10.3391,1.4442 10.1841,1.2382 C9.9081,0.8732 9.5951,0.4582 9.0911,0.2942 C8.6021,0.1372 8.1171,0.2832 7.6861,0.4122 C7.1751,0.5672 6.8031,0.5672 6.2921,0.4122 C5.8611,0.2832 5.3741,0.1352 4.8871,0.2942 C4.3821,0.4572 4.0691,0.8732 3.7931,1.2392 C3.6381,1.4442 3.4921,1.6392 3.3441,1.7462 C3.1931,1.8572 2.9611,1.9372 2.7151,2.0232 C2.2841,2.1722 1.7961,2.3412 1.4881,2.7642 C1.1821,3.1852 1.1711,3.6992 1.1611,4.1532 C1.1551,4.4152 1.1501,4.6632 1.0911,4.8452 C1.0361,5.0142 0.8991,5.2102 0.7541,5.4172 C0.4891,5.7952 0.1891,6.2232 0.1891,6.7622 C0.1891,7.3022 0.4891,7.7302 0.7541,8.1082 C0.8991,8.3152 1.0361,8.5102 1.0911,8.6792 C1.1501,8.8612 1.1551,9.1102 1.1611,9.3722 C1.1711,9.8262 1.1811,10.3402 1.4871,10.7592 C1.7961,11.1832 2.2831,11.3522 2.7141,11.5022 C2.9601,11.5872 3.1921,11.6682 3.3431,11.7782 C3.4921,11.8862 3.6381,12.0812 3.7941,12.2862 C4.0691,12.6522 4.3821,13.0672 4.8861,13.2312 C5.3761,13.3892 5.8611,13.2422 6.2921,13.1122 C6.8031,12.9582 7.1751,12.9582 7.6861,13.1122 C7.9831,13.2022 8.3071,13.2992 8.6401,13.2992 C8.7891,13.2992 8.9401,13.2802 9.0911,13.2312 C9.5951,13.0682 9.9091,12.6522 10.1841,12.2852 C10.3401,12.0802 10.4851,11.8862 10.6331,11.7782 C10.7851,11.6682 11.0171,11.5882 11.2631,11.5022 C11.6931,11.3532 12.1811,11.1842 12.4901,10.7602 C12.7961,10.3402 12.8061,9.8262 12.8161,9.3722 C12.8221,9.1102 12.8281,8.8622 12.8861,8.6792 C12.9411,8.5112 13.0791,8.3152 13.2231,8.1082 C13.4881,7.7302 13.7891,7.3022 13.7891,6.7622 C13.7891,6.2232 13.4891,5.7952 13.2231,5.4172" id="Fill-47"></path>
        </g>
    </g>
</svg>
